<svg width="318.459106" height="48.000000" viewBox="0 0 318.459 48" fill="none" xmlns="http://www.w3.org/2000/svg" xmlns:xlink="http://www.w3.org/1999/xlink">
	<desc>
			Created with Pixso.
	</desc>
	<defs>
		<linearGradient x1="5.790373" y1="23.999794" x2="23.373127" y2="23.999794" id="paint_linear_25_706_0" gradientUnits="userSpaceOnUse">
			<stop stop-color="#737373"/>
			<stop offset="1.000000" stop-color="#21D5E0"/>
		</linearGradient>
	</defs>
	<path id="image 2 (Traced)" d="M14.7 11.43C13.77 11.73 12.43 12.45 11.55 13.13C10.75 13.74 9.45 15.42 9.46 15.85C9.46 15.98 9.91 16.3 10.47 16.57C11.65 17.13 13.21 18.75 13.93 20.16C14.89 22.04 15.02 24.98 14.23 27.01C13.98 27.67 14.01 27.7 15.03 27.98C18.58 28.94 22.77 26.95 24.63 23.4C25.25 22.23 25.33 21.82 25.33 19.71C25.33 17.6 25.25 17.19 24.64 16.03C23.65 14.14 22.68 13.15 20.9 12.2C19.55 11.48 19.04 11.35 17.33 11.29C16.23 11.25 15.05 11.31 14.7 11.43ZM5.75 12.79C5.05 13.53 5.06 14.23 5.78 14.92C6.53 15.62 7.23 15.6 7.91 14.88C8.59 14.16 8.6 13.36 7.95 12.71C7.29 12.04 6.42 12.08 5.75 12.79ZM20.05 14.17C21.74 15.08 22.95 16.77 23.31 18.77L23.48 19.71L22.34 19.71C21.33 19.71 21.2 19.65 21.2 19.15C21.19 17.64 19.02 15.47 17.52 15.46C17.02 15.46 16.95 15.33 16.95 14.32L16.95 13.19L17.89 13.35C18.41 13.44 19.38 13.81 20.05 14.17ZM0.21 15.83C0.03 16.05 -0.03 16.47 0.06 16.85C0.2 17.39 0.34 17.48 1.03 17.41C1.65 17.35 1.85 17.2 1.91 16.76C2.07 15.66 0.88 15.01 0.21 15.83ZM4.66 17.81C3.46 18.13 3.12 18.33 1.86 19.45C-0.72 21.73 -0.61 26.32 2.08 28.68C3.4 29.83 4.56 30.27 6.33 30.27C8.79 30.27 10.6 29.21 11.9 27C12.48 26.01 12.58 25.55 12.58 23.96C12.58 22.37 12.48 21.91 11.9 20.92C10.33 18.26 7.49 17.04 4.66 17.81ZM22.11 30.04C21.9 30.56 21.47 30.99 20.99 31.2C20.53 31.38 20.2 31.7 20.2 31.96C20.2 32.21 20.53 32.53 20.99 32.72C21.47 32.92 21.9 33.36 22.11 33.88C22.3 34.33 22.63 34.71 22.83 34.71C23.03 34.71 23.35 34.33 23.55 33.88C23.76 33.36 24.19 32.92 24.67 32.72C25.13 32.53 25.45 32.21 25.45 31.96C25.45 31.7 25.13 31.38 24.67 31.2C24.19 30.99 23.76 30.56 23.55 30.04C23.35 29.58 23.03 29.21 22.83 29.21C22.63 29.21 22.3 29.58 22.11 30.04ZM12.64 30.85C11.29 31.59 10.78 33.78 11.62 35.22C13.1 37.71 17 36.86 17.39 33.96C17.73 31.37 15 29.57 12.64 30.85ZM6.77 32.77C6.22 33.48 6.21 33.71 6.7 34.2C6.98 34.48 7.31 34.71 7.44 34.71C7.79 34.71 8.45 33.97 8.45 33.58C8.45 33.15 7.77 32.46 7.34 32.46C7.16 32.46 6.91 32.6 6.77 32.77ZM1.58 34.06C1.24 34.4 0.95 34.92 0.95 35.2C0.95 35.9 1.82 36.71 2.58 36.71C3.32 36.71 4.2 35.91 4.2 35.24C4.2 34.63 3.48 33.8 2.77 33.59C2.37 33.47 2.04 33.6 1.58 34.06Z" fill="url(#paint_linear_25_706_0)" fill-opacity="1.000000" fill-rule="evenodd"/>
	<path id="MySpace Cleaning" d="M209.43 11.35L204.6 11.35L204.6 35L209.43 35L209.43 11.35ZM271.99 17.02Q272.52 17.27 273.18 17.27Q273.84 17.27 274.38 17.01Q274.75 16.83 275.06 16.53Q275.39 16.21 275.58 15.82Q275.83 15.31 275.83 14.67Q275.83 14.12 275.63 13.65Q275.43 13.2 275.06 12.84Q274.72 12.51 274.32 12.32Q273.8 12.08 273.18 12.08Q272.56 12.08 272.04 12.31Q271.63 12.5 271.28 12.84Q270.92 13.2 270.73 13.63Q270.52 14.11 270.52 14.67Q270.52 15.32 270.77 15.84Q270.96 16.22 271.28 16.53Q271.61 16.84 271.99 17.02ZM81.93 35.4Q82.81 35.47 83.7 35.47Q88.05 35.47 90.24 33.78Q91.08 33.13 91.6 32.28Q92.44 30.92 92.44 29.04Q92.44 27.28 91.83 26.09Q91.22 24.89 89.94 24Q88.66 23.12 86.39 22.17Q84.44 21.36 83.57 20.95Q82.71 20.53 82.22 19.99Q82.11 19.86 82.02 19.71Q81.75 19.24 81.75 18.61Q81.75 18.07 81.97 17.65Q82.22 17.17 82.77 16.84Q83.79 16.21 85.59 16.21Q88.4 16.21 91.22 17.62L91.22 13.46Q89.75 12.78 88.21 12.46Q86.68 12.14 84.69 12.14Q82.26 12.14 80.4 12.95Q78.75 13.66 77.76 14.9Q77.64 15.05 77.53 15.21Q77.19 15.69 76.96 16.22Q76.51 17.29 76.51 18.55Q76.51 20.16 77.17 21.42Q77.48 21.98 77.91 22.47Q79.32 24.05 82.45 25.33Q84.34 26.1 85.26 26.57Q86.17 27.03 86.65 27.6Q86.78 27.77 86.88 27.95Q87.12 28.42 87.12 29.01Q87.12 29.59 86.88 30.04Q86.64 30.49 86.16 30.81Q85.21 31.44 83.35 31.44Q81.69 31.44 79.86 31.03Q79.36 30.91 78.87 30.77Q77.57 30.38 76.34 29.78L76.34 34.07Q77.62 34.71 79.64 35.09Q80.78 35.31 81.93 35.4ZM187.54 34.05Q190.3 35.47 193.88 35.47Q198.94 35.47 201.88 33.3L201.88 28.69Q200.6 29.71 199.14 30.28Q198.82 30.4 198.49 30.5Q196.66 31.06 194.3 31.06Q191.34 31.06 189.41 29.65Q189.09 29.41 188.79 29.13Q188.32 28.69 187.96 28.17Q186.74 26.42 186.74 23.82Q186.74 21.3 187.92 19.57Q188.29 19.03 188.77 18.57Q189.05 18.31 189.34 18.08Q191.27 16.63 194.3 16.63Q196.6 16.63 198.41 17.16Q199.49 17.47 200.44 18.03Q201.06 18.4 201.63 18.87L201.63 14.26Q198.52 12.14 193.88 12.14Q190.3 12.14 187.54 13.57Q186.01 14.36 184.87 15.53Q183.95 16.46 183.28 17.64Q181.78 20.28 181.78 23.82Q181.78 27.38 183.28 30Q183.93 31.13 184.81 32.04Q185.97 33.24 187.54 34.05ZM36.92 12.63L32.12 12.63L32.12 35L36.79 35L36.79 22.29L42.68 35L44.92 35L50.84 22.29L50.84 35L55.48 35L55.48 12.63L50.71 12.63L43.8 27.6L36.92 12.63ZM99.83 19.64L95.16 19.64L95.16 42L99.99 42L99.99 33.62Q101.02 34.52 102.49 35Q103.96 35.47 105.59 35.47Q107.89 35.47 109.68 34.52Q109.75 34.48 109.83 34.43Q110.75 33.91 111.47 33.19Q112.19 32.47 112.7 31.54Q112.73 31.48 112.77 31.42Q113.72 29.6 113.72 27.28Q113.72 24.85 112.7 23.02Q112.17 22.08 111.44 21.35Q110.73 20.66 109.83 20.17Q109.82 20.16 109.81 20.15Q107.97 19.15 105.59 19.15Q103.44 19.15 101.73 20.01Q100.7 20.52 99.83 21.33L99.83 19.64ZM117.79 34.21Q119.52 35.47 122.17 35.47Q124.9 35.47 126.7 34.18Q127.08 33.91 127.42 33.59L127.42 35L131.96 35L131.96 25.65Q131.96 23.54 130.99 22.07Q130.55 21.4 129.91 20.87Q127.86 19.15 123.7 19.15Q122.07 19.15 120.44 19.46Q118.81 19.76 117.78 20.21L117.78 23.73Q117.85 23.7 117.93 23.67Q120.23 22.67 122.97 22.67Q125.08 22.67 126.1 23.35Q126.44 23.57 126.66 23.87Q127.13 24.49 127.13 25.46L127.13 25.85Q126.17 25.33 124.92 25.04Q123.67 24.75 122.3 24.75Q119.19 24.75 117.49 26.18Q116.98 26.61 116.63 27.14Q115.8 28.37 115.8 30.17Q115.8 31.66 116.45 32.77Q116.87 33.49 117.57 34.05Q117.68 34.13 117.79 34.21ZM136.58 33.54Q139 35.47 142.96 35.47Q146.84 35.47 149.21 34L149.21 30.23Q148.77 30.5 148.31 30.73Q146.27 31.73 143.74 31.73Q141.5 31.73 140.17 30.66Q139.95 30.49 139.77 30.28Q138.84 29.22 138.84 27.35Q138.84 25.5 139.75 24.43Q139.95 24.21 140.18 24.02Q141.53 22.93 143.77 22.93Q145.27 22.93 146.63 23.28Q147.99 23.64 149.01 24.37L149.01 20.57Q146.78 19.15 143 19.15Q139.13 19.15 136.71 21.02Q136.53 21.16 136.35 21.32Q135.69 21.89 135.21 22.59Q133.88 24.51 133.88 27.35Q133.88 30.23 135.24 32.14Q135.71 32.8 136.34 33.35Q136.46 33.45 136.58 33.54ZM153.78 33.35Q156.31 35.47 160.72 35.47Q161.01 35.47 161.31 35.46Q162.78 35.42 164.25 35.18Q166 34.9 167.13 34.42L167.13 31.03Q165.97 31.47 164.4 31.73Q162.84 31.99 161.36 31.99Q157.48 31.99 156.31 30.21Q155.98 29.7 155.86 29.04L168.54 29.04L168.54 27.09Q168.54 25.08 167.76 23.43Q167.66 23.22 167.54 23.01Q167.22 22.41 166.79 21.9Q165.92 20.87 164.63 20.18Q162.71 19.15 159.96 19.15Q156.03 19.15 153.8 21.1Q153.65 21.23 153.51 21.36Q153.05 21.82 152.68 22.34Q151.25 24.36 151.25 27.38Q151.25 30.1 152.52 31.96Q153.04 32.73 153.78 33.35ZM214.67 33.35Q217.2 35.47 221.62 35.47Q221.91 35.47 222.2 35.46Q223.67 35.42 225.14 35.18Q226.9 34.9 228.03 34.42L228.03 31.03Q226.87 31.47 225.3 31.73Q223.74 31.99 222.26 31.99Q218.38 31.99 217.21 30.21Q216.87 29.7 216.76 29.04L229.43 29.04L229.43 27.09Q229.43 25.08 228.65 23.43Q228.55 23.22 228.44 23.01Q228.11 22.41 227.68 21.9Q226.81 20.87 225.53 20.18Q223.6 19.15 220.85 19.15Q216.92 19.15 214.69 21.1Q214.55 21.23 214.41 21.36Q213.94 21.82 213.57 22.34Q212.15 24.36 212.15 27.38Q212.15 30.1 213.42 31.96Q213.94 32.73 214.67 33.35ZM233.47 34.21Q235.2 35.47 237.85 35.47Q240.58 35.47 242.38 34.18Q242.76 33.91 243.1 33.59L243.1 35L247.64 35L247.64 25.65Q247.64 23.54 246.67 22.07Q246.23 21.4 245.59 20.87Q243.54 19.15 239.38 19.15Q237.75 19.15 236.12 19.46Q234.49 19.76 233.46 20.21L233.46 23.73Q233.53 23.7 233.61 23.67Q235.91 22.67 238.65 22.67Q240.76 22.67 241.78 23.35Q242.12 23.57 242.34 23.87Q242.81 24.49 242.81 25.46L242.81 25.85Q241.85 25.33 240.6 25.04Q239.35 24.75 237.98 24.75Q234.87 24.75 233.17 26.18Q232.66 26.61 232.31 27.14Q231.48 28.37 231.48 30.17Q231.48 31.66 232.13 32.77Q232.55 33.49 233.25 34.05Q233.36 34.13 233.47 34.21ZM255.51 19.64L250.84 19.64L250.84 35L255.67 35L255.67 25.27Q256.41 24.11 257.46 23.53Q257.96 23.25 258.5 23.1Q259.1 22.93 259.74 22.93Q261 22.93 261.69 23.56Q262.49 24.3 262.49 25.91L262.49 35L267.32 35L267.32 25.36Q267.32 22.87 266.12 21.27Q265.95 21.04 265.76 20.84Q265.65 20.71 265.52 20.6Q263.98 19.15 261.08 19.15Q260.11 19.15 259.19 19.37Q258.6 19.51 258.02 19.75Q257.37 20.01 256.81 20.39Q256.1 20.86 255.51 21.53L255.51 19.64ZM283.83 19.64L279.16 19.64L279.16 35L283.99 35L283.99 25.27Q284.73 24.11 285.78 23.53Q286.28 23.25 286.82 23.1Q287.41 22.93 288.06 22.93Q289.32 22.93 290.01 23.56Q290.81 24.3 290.81 25.91L290.81 35L295.64 35L295.64 25.36Q295.64 22.87 294.44 21.27Q294.27 21.04 294.08 20.84Q293.97 20.71 293.84 20.6Q292.3 19.15 289.4 19.15Q288.43 19.15 287.51 19.37Q286.92 19.51 286.34 19.75Q285.69 20.01 285.13 20.39Q284.42 20.86 283.83 21.53L283.83 19.64ZM304 42.07Q305.56 42.35 307.1 42.35Q312.03 42.35 314.39 40.17Q314.82 39.78 315.18 39.32Q316.76 37.27 316.76 34L316.76 19.64L312.09 19.64L312.09 21.3Q310.87 20.18 309.5 19.67Q308.12 19.15 306.32 19.15Q304.08 19.15 302.3 20.07Q302.21 20.12 302.11 20.17Q301.29 20.62 300.64 21.23Q299.81 22 299.24 23.03Q299.23 23.05 299.22 23.06Q298.2 24.9 298.2 27.32Q298.2 29.39 299.01 31.08Q299.12 31.31 299.25 31.54Q299.76 32.43 300.45 33.13Q301.21 33.89 302.18 34.43Q302.4 34.56 302.63 34.66Q304.34 35.47 306.42 35.47Q308.06 35.47 309.5 35.01Q310.93 34.55 311.92 33.65L311.92 34.61Q311.92 36.6 310.93 37.65Q310.87 37.72 310.81 37.78Q309.69 38.84 307.1 38.84Q303.86 38.84 301.4 37.75L301.4 41.3Q302.46 41.78 304 42.07ZM61.1 41.2Q62.1 41.33 63.06 41.33Q65.34 41.33 66.87 40.27Q67.02 40.16 67.16 40.05Q68.76 38.77 69.85 36.05L76.38 19.64L71.54 19.64L67.42 30.23L63.06 19.64L58.2 19.64L64.85 34.17L64.35 35.47Q63.96 36.57 63.36 37.07Q62.78 37.59 61.62 37.59Q60.5 37.59 59.57 37.24L59.57 40.85Q60.09 41.07 61.1 41.2ZM275.6 19.64L270.75 19.64L270.75 35L275.6 35L275.6 19.64ZM163.36 24.1Q163.89 24.84 163.96 25.91L155.86 25.91Q155.92 24.91 156.41 24.2Q156.65 23.83 157.01 23.54Q158.07 22.67 159.89 22.67Q161.75 22.67 162.81 23.53Q163.13 23.78 163.36 24.1ZM224.26 24.1Q224.79 24.84 224.85 25.91L216.76 25.91Q216.82 24.91 217.3 24.2Q217.55 23.83 217.91 23.54Q218.97 22.67 220.79 22.67Q222.65 22.67 223.7 23.53Q224.02 23.78 224.26 24.1ZM106.76 31.1Q105.74 31.7 104.38 31.7Q103.43 31.7 102.6 31.38Q102.11 31.2 101.67 30.9Q101.04 30.48 100.61 29.91Q100.22 29.39 99.99 28.75L99.99 25.85Q100.23 25.23 100.62 24.72Q101.06 24.16 101.68 23.74Q102.11 23.45 102.57 23.27Q103.41 22.93 104.38 22.93Q105.78 22.93 106.82 23.55Q107.21 23.79 107.56 24.12Q107.88 24.43 108.12 24.8Q108.79 25.82 108.79 27.28Q108.79 28.71 108.15 29.74Q107.9 30.15 107.56 30.49Q107.19 30.85 106.76 31.1ZM309.33 31.42Q308.51 31.73 307.57 31.73Q306.19 31.73 305.17 31.12Q304.75 30.87 304.39 30.52Q304.08 30.21 303.85 29.86Q303.16 28.8 303.16 27.28Q303.16 25.81 303.83 24.78Q304.07 24.42 304.39 24.12Q304.72 23.8 305.11 23.56Q306.15 22.93 307.57 22.93Q308.59 22.93 309.46 23.3Q309.87 23.48 310.25 23.74Q310.79 24.11 311.19 24.59Q311.65 25.16 311.92 25.88L311.92 28.75Q311.73 29.33 311.4 29.81Q310.96 30.45 310.28 30.92Q309.82 31.22 309.33 31.42ZM125.62 31.83Q124.67 32.28 123.48 32.28Q122.17 32.28 121.46 31.74Q121.23 31.56 121.08 31.33Q120.76 30.86 120.76 30.17Q120.76 29.37 121.14 28.86Q121.28 28.67 121.48 28.52Q122.2 27.96 123.54 27.96Q124.49 27.96 125.37 28.21Q126.29 28.49 127.13 29.04L127.13 30.58Q127.04 30.71 126.94 30.83Q126.42 31.45 125.62 31.83ZM241.3 31.83Q240.35 32.28 239.16 32.28Q237.85 32.28 237.14 31.74Q236.91 31.56 236.76 31.33Q236.44 30.86 236.44 30.17Q236.44 29.37 236.82 28.86Q236.96 28.67 237.16 28.52Q237.88 27.96 239.22 27.96Q240.17 27.96 241.05 28.21Q241.97 28.49 242.81 29.04L242.81 30.58Q242.72 30.71 242.62 30.83Q242.1 31.45 241.3 31.83Z" fill="#000000" fill-opacity="1.000000" fill-rule="evenodd"/>
</svg>
